<?xml version="1.0" encoding="UTF-8"?><svg id="a" xmlns="http://www.w3.org/2000/svg" viewBox="0 0 180 79"><defs><style>.e{fill:#010101;}.f{fill:#fff;}.g{fill:#bc3b38;}.h{fill:#cacaca;}.i{fill:#202020;}.j,.k,.l{fill:#1c1c1c;}.m{fill:#717070;}.k{stroke:#000;stroke-width:.25px;}.k,.l,.n{stroke-miterlimit:10;}.l,.n{stroke:#1c1c1c;stroke-width:.5px;}.n{fill:none;}</style></defs><path class="l" d="m89.94,78.87c-29.61,0-59.21,0-88.82,0q-.99,0-.99-1.01c0-25.61,0-51.22,0-76.82,0-.15-.02-.3,0-.44.04-.26.16-.46.46-.46.13,0,.25,0,.38,0,59.3,0,118.59,0,177.89,0,.17,0,.34-.03.5,0,.27.06.5.2.49.54,0,.13,0,.25,0,.38,0,25.59,0,51.17,0,76.76,0,.17,0,.34,0,.5-.01.22-.31.53-.52.55-.19.01-.37,0-.56,0-29.61,0-59.21,0-88.82,0Zm.05-.48c29.54,0,59.09,0,88.63,0q.74,0,.74-.71c0-25.42,0-50.84,0-76.26,0-.98.09-.81-.84-.81-59,0-118.01,0-177.01,0q-.91,0-.91.94c0,25.34,0,50.67,0,76.01q0,.83.82.83c29.52,0,59.05,0,88.57,0Z"/><path class="i" d="m174.61,13.76c.04-.09.08-.17.13-.26.16.06.13.2.13.31,0,.31,0,.63,0,.94,0,19.3,0,38.6,0,57.9,0,.23.11.49-.11.69-.07-.01-.12-.05-.14-.12,0-.27,0-.54,0-.81,0-19.24,0-38.48,0-57.72,0-.31,0-.63,0-.94Z"/><path class="i" d="m5.55,73.18c-.03.13-.06.26-.09.39-.14.04-.26,0-.28-.15-.03-.18-.03-.37-.03-.56,0-19.55,0-39.11,0-58.66,0-.24-.15-.55.17-.73.05.13.24.14.23.31-.08.01-.18.01-.18.12-.01.19-.01.37-.01.56,0,19.34,0,38.69,0,58.03,0,.19,0,.38.01.56,0,.11.1.11.18.12Z"/><path class="m" d="m5.55,73.18c-.08-.01-.18-.01-.18-.12-.01-.19-.01-.37-.01-.56,0-19.34,0-38.69,0-58.03,0-.19,0-.38.01-.56,0-.11.1-.11.18-.12,0,17.3,0,34.59,0,51.89,0,2.5,0,5.01,0,7.51Z"/><path class="m" d="m174.61,13.76c0,.31,0,.63,0,.94,0,19.24,0,38.48,0,57.72,0,.27,0,.54,0,.81-.1-.06-.12-.16-.12-.27,0-.19,0-.38,0-.56,0-19.31,0-38.62,0-57.94,0-.23-.1-.5.11-.7Z"/><path class="j" d="m107.42,70.22c-.12-.47-.27-.92-.68-1.24-.19-.15-.48-.11-.63-.34,0-.11.02-.22.02-.33.78,0,1.25.42,1.5,1.12.09.25.34.48.22.79-.14,0-.29,0-.43,0Z"/><path class="i" d="m57.78,20.09c.13.06.26.11.39.17,0,.16,0,.32,0,.47-.3-.17-.65-.29-.84-.61.15-.01.3.05.45-.03Z"/><path class="i" d="m57,19.67c-.2-.27-.42-.54-.29-.92.14,0,.27.01.34.15,0,.03,0,.06.01.09-.1.06-.13.15-.09.26.06.14.07.27.02.42Z"/><path class="h" d="m57.06,18.99s0-.06-.01-.09c.04-.02.07-.03.12-.03,0,.04,0,.08,0,.13-.04,0-.07,0-.11,0Z"/><path class="h" d="m58.3,20.25c.06,0,.11,0,.12.07-.1.07-.12,0-.12-.07Z"/><path class="j" d="m13.12,39.54c.28-.81.81-1.23,1.69-1.26.75-.03,1.5,0,2.25,0,1.77,0,3.54,0,5.31,0,.57,0,.66.15.66-.63,0-2.33,0-4.66,0-6.99,0-.25-.04-.5.05-.74.13-.03.26-.32.4,0,0,.75.02,1.5.03,2.24,0,1.96,0,3.91,0,5.87,0,.53-.05.57-.56.6-.1,0-.21,0-.31,0-1.91,0-3.83,0-5.74,0-.6,0-1.21-.03-1.81.01-.59.04-1.15.21-1.47.79-.08,0-.14.03-.08.13-.01.27-.03.54-.03.81,0,4.07,0,8.14,0,12.2,0,.19,0,.38.01.56.07.62.49,1.05,1.11,1.13.23.03.46.03.69.03,2.4,0,4.8.02,7.2,0,.84-.01,1.02.2,1.01.98-.03,2.44-.01,4.88,0,7.32,0,.29.02.58.03.87-.05.1,0,.13.09.13.32.58.85.71,1.47.71,4.09,0,8.18,0,12.27,0,.31,0,.62-.07.93-.1.43-.04.62-.28.73-.64.09-.29.15-.59.15-.9-.01-1.82,0-3.63,0-5.45,0-.77,0-1.54,0-2.32,0-.55.07-.6.62-.6,1.36,0,2.71.02,4.07,0,1.44-.02,2.88.09,4.31-.07.46-.05.72-.23.86-.65.1-.3.14-.59.14-.91,0-4.07,0-8.14,0-12.21,0-.21.02-.42-.02-.62-.1-.49-.31-.88-.84-1.05-.28-.09-.55-.15-.84-.15-2.57,0-5.13,0-7.7,0-.58,0-.6-.01-.6-.45,0-2.75,0-5.51.02-8.26.16,0,.32,0,.49,0,.09.24.05.49.05.74,0,2.29,0,4.59,0,6.88,0,.15,0,.29,0,.44,0,.2.07.31.29.3.15,0,.29,0,.44,0,2.36,0,4.71.01,7.07,0,.58,0,1.08.21,1.56.47.37.2.48.62.56,1.01.04.2.03.42.03.62,0,4.09,0,8.17,0,12.26,0,.41-.04.79-.28,1.18-.42.68-1.04.89-1.75.93-.71.04-1.42.01-2.13.01-1.75,0-3.5,0-5.25,0-.56,0-.54-.03-.54.55,0,2.38,0,4.75,0,7.13,0,.31.02.63-.09.93-.33.87-1.05,1.36-2.06,1.36-2.13.01-4.25,0-6.38,0-2.19,0-4.38-.01-6.57-.02-.12-.11-.26-.16-.42-.08-.07-.02-.13-.05-.2-.07-.04-.15-.14-.21-.29-.21-.58-.36-.69-.94-.69-1.56,0-.88,0-1.75,0-2.63,0-1.65,0-3.29,0-4.94,0-.47,0-.48-.48-.48-2.42,0-4.83,0-7.25,0-.31,0-.62-.01-.93-.07-.6-.11-1.36-.8-1.31-1.52.01-.21-.02-.42-.02-.62,0-4.02,0-8.04,0-12.06,0-.23-.03-.46.07-.68.13-.07.19-.15.04-.25Z"/><path class="k" d="m82.57,64.73c-7.53,0-15.07,0-22.6,0-.25,0-.5,0-.75,0-.95-.04-1.62-.7-1.68-1.67-.01-.21-.01-.42-.01-.63,0-4.61,0-9.22,0-13.83,0-.19.02-.38,0-.56-.06-.52.19-.9.52-1.26.29-.32.67-.46,1.08-.5.27-.03.54-.05.81-.05,15.25,0,30.51,0,45.76,0,.7,0,1.33.14,1.83.67.38.41.46.9.46,1.42,0,2.8,0,5.59,0,8.39,0,2.02,0,4.05,0,6.07,0,.64-.18,1.18-.7,1.58-.32.25-.69.33-1.07.36-.25.02-.5.01-.75.01-7.64,0-15.27,0-22.91,0Zm.22-.45c7.62,0,15.23,0,22.85,0,.27,0,.55,0,.81-.03.47-.07.79-.3.95-.78.09-.26.13-.51.13-.78,0-4.78,0-9.56,0-14.33,0-.08,0-.17,0-.25-.04-.8-.51-1.35-1.3-1.46-.22-.03-.46-.04-.68-.04-15.25,0-30.5,0-45.76,0-.15,0-.29,0-.44,0-.17,0-.3.07-.46.15-.7.36-.9.91-.9,1.68.03,4.72.01,9.43.01,14.15,0,.21.01.42.02.63.02.43.24.72.63.92.35.18.73.17,1.1.17,7.68,0,15.36,0,23.04,0Z"/><path class="j" d="m106.5,35.03c.63.07.83.61,1.13,1.04.28.39.29.84.28,1.3,0,1.23-.03,2.46,0,3.69.02.65-.17,1.22-.48,1.75-.34.57-.94.75-1.55.87-.2.04-.42.02-.62.02-15.21,0-30.41,0-45.62,0-.27,0-.54-.03-.81,0-1.13.12-2.16-1.11-2.15-2.11,0-.27,0-.54,0-.81,0-1.27,0-2.54,0-3.82,0-1.04.76-1.93,1.77-2.11.29-.05.58-.06.87-.06,15.31,0,30.62,0,45.93,0,.29,0,.59-.06.86.09.07.2.23.16.39.16Zm-24.29.23c-7.62,0-15.23,0-22.85,0-.21,0-.42,0-.63,0-.89.06-1.57.77-1.58,1.6-.02,1.65,0,3.3,0,4.94,0,.29.13.5.3.71.48.59,1.1.73,1.83.73,14.79-.01,29.59,0,44.38,0,.63,0,1.25,0,1.88,0,.36,0,.71-.04,1.02-.24.56-.37.84-.91.85-1.56.02-1,0-2,0-3,0-.5.02-1,0-1.5-.05-.81-.5-1.29-1.27-1.54-.33-.11-.64-.13-.96-.13-7.66,0-15.32,0-22.97,0Z"/><path class="j" d="m56.73,30.39c-.11-.37-.05-.75-.06-1.12,0-1.09,0-2.17,0-3.26,0-.19,0-.38,0-.56.08-1.17.96-2.04,2.14-2.1.23-.01.46-.01.69-.01,15.21,0,30.42,0,45.64-.01.6,0,1.13.17,1.67.34.26.08.44.3.58.54.33.56.53,1.13.52,1.8-.03,1.31,0,2.63-.02,3.94-.02,1.18-.63,1.92-1.76,2.27-.21.06-.41.05-.61.05-3.34,0-6.68,0-10.02,0-12,0-24,0-35.99,0-.33,0-.67.05-.99-.07,0-.12,0-.23.01-.35.34-.13.7-.05,1.05-.05,15.17,0,30.34,0,45.51,0,.23,0,.46,0,.69-.01.25-.01.49-.08.71-.2.68-.36.91-.98.92-1.69.02-1.38.01-2.75,0-4.13,0-1.01-.38-1.54-1.34-1.9-.26-.1-.54-.06-.81-.06-15.3,0-30.59,0-45.89,0-.17,0-.33,0-.5,0-.87,0-1.82.8-1.77,1.83.07,1.58.02,3.17.02,4.76-.14,0-.28,0-.42,0Z"/><path class="j" d="m160.46,65.44c-.36.23-.74.31-1.17.31-5.7,0-11.39,0-17.09,0-.27,0-.55-.01-.81-.07-.58-.12-1.01-.61-1.08-1.21-.02-.19-.02-.37-.02-.56,0-5.68,0-11.35,0-17.03,0-.1,0-.21,0-.31.01-.71.43-1.2,1.14-1.3.2-.03.42-.03.62-.03,5.63,0,11.27,0,16.9,0,.35,0,.7-.06,1.03.14.2.12.47.05.63.32.18.33.36.64.37,1.02,0,.15,0,.29,0,.44,0,5.61,0,11.23,0,16.84,0,.32.07.66-.15.96-.3.02-.32.27-.38.48Zm-9.63-.15h0c2.94,0,5.88,0,8.82,0,.51,0,.83-.29.88-.8.01-.14,0-.29,0-.44,0-5.7,0-11.39,0-17.09,0-.13,0-.25,0-.38,0-.32-.16-.52-.4-.7-.29-.22-.59-.3-.96-.3-5.61.01-11.22,0-16.84,0-.21,0-.42,0-.62.02-.48.06-.79.38-.85.85-.02.14,0,.29,0,.44,0,5.74,0,11.47,0,17.21,0,.13,0,.25,0,.38.04.5.22.7.71.76.25.03.5.04.75.04,2.84,0,5.67,0,8.51,0Z"/><path class="j" d="m116.43,64.32c0-.17-.03-.33-.03-.5,0-5.65,0-11.31,0-16.96,0-.48.02-.92.44-1.28.18-.16.33-.29.56-.31.27-.03.54-.04.81-.04,5.57,0,11.14,0,16.71,0,.25,0,.5-.01.75.03.8.14,1.24.58,1.33,1.42.02.17,0,.33,0,.5,0,5.55,0,11.1,0,16.65,0,.45-.05.88-.3,1.27-.12-.01-.23-.05-.29-.16.13-.25.12-.52.12-.79,0-5.75,0-11.51,0-17.26,0-.9-.38-1.29-1.27-1.29-5.69,0-11.38,0-17.07,0-.21,0-.42,0-.62.03-.49.08-.68.31-.69.81,0,2.36-.02,4.71-.02,7.07,0,3.73,0,7.46,0,11.19-.25,0-.17-.36-.42-.36Z"/><path class="e" d="m135.92,65.68c-.2.09-.41.06-.62.06-5.68,0-11.36,0-17.04,0-.21,0-.41-.02-.62-.03-.02-.13-.1-.17-.22-.15,0-.11,0-.22,0-.33.33.02.67.05,1,.05,5.84,0,11.68,0,17.52,0,0,.13,0,.26-.01.39Z"/><path class="e" d="m24.24,28.39c.2-.16.44-.11.66-.11,4.25,0,8.5,0,12.74,0,.12,0,.25.02.37.03,0,.11,0,.21,0,.32-.21.2-.48.12-.72.12-4.07,0-8.13,0-12.2,0-.29,0-.58-.04-.87.06,0-.14,0-.29,0-.43Z"/><path class="i" d="m38.01,28.63c0-.11,0-.21,0-.32.93.14,1.53.62,1.66,1.6-.16,0-.32,0-.49,0-.2-.6-.47-1.13-1.17-1.27Z"/><path class="i" d="m24.24,28.39c0,.14,0,.29,0,.43-.05.05-.1.04-.15,0-.24-.07-.33.04-.33.27.03.11-.09.12-.13.18-.07.03-.1.1-.12.17-.01.15-.02.31-.03.46-.14-.32-.27-.03-.4,0-.1-.24-.09-.48.08-.69.3-.35.57-.76,1.09-.83Z"/><path class="i" d="m117.41,65.23c0,.11,0,.22,0,.33,0,.04-.02.08-.03.12-.63-.23-.97-.67-.96-1.36.25,0,.17.37.42.36.05.32.38.36.56.55Z"/><path class="i" d="m58.54,31.85c0,.12,0,.23-.01.35-.37-.02-.72-.11-.96-.43.17,0,.35,0,.52,0,.15.01.33-.09.45.09Z"/><path class="i" d="m56.73,30.39c.14,0,.28,0,.42,0,.07.17.19.32.16.51-.15,0-.25.05-.27.21,0,.05,0,.1,0,.15-.11-.29-.46-.49-.31-.86Z"/><path class="i" d="m135.92,65.68c0-.13,0-.26.01-.39.16-.12.32-.24.48-.36.06.12.17.15.29.16-.07.45-.43.52-.79.59Z"/><path class="e" d="m57.06,18.99s.07.02.11,0c.02.47.37.75.61,1.09-.14.08-.3.02-.45.03-.04-.01-.06-.04-.06-.08.02-.21-.04-.36-.27-.38h0c.05-.14.04-.28-.02-.42-.05-.11-.02-.2.09-.26Z"/><path class="j" d="m158.01,23.6c-.46-.5-.89-.5-1.35,0-.11.01-.2.06-.26.15-.26.37-.27.86,0,1.23.26.37.77.53,1.29.41.43-.1.76-.49.78-.94.02-.37-.03-.71-.46-.84Zm-.16,1.42c-.29.22-.74.22-1.03,0-.28-.22-.38-.6-.25-.94.05-.13.13-.26.19-.39.38-.23.76-.23,1.15,0,0,0,0,0,0,0,.06.13.14.25.19.39.13.35.03.72-.25.94Z"/><path class="e" d="m58.09,31.76c-.17,0-.35,0-.52,0-.14-.03-.22-.13-.3-.24.04-.18.07-.35.11-.53.24.25.47.5.71.76Z"/><path class="m" d="m57.38,31c-.04.18-.07.35-.11.53-.15-.03-.22-.13-.23-.27,0-.05,0-.1,0-.15.17.14.28.12.32-.12h.02Z"/><path class="i" d="m160.46,65.44c.06-.21.08-.46.38-.48-.03.24-.11.44-.38.48Z"/><path class="m" d="m24.2,64.63c.16-.08.29-.03.42.08-.16.07-.3.05-.42-.08Z"/><path class="m" d="m138.73,29.23c.21-.09.43-.08.65-.01-.21.08-.43.08-.65.01Z"/><path class="h" d="m148.83,29.14c.12-.09.24-.08.36,0-.12.15-.24.15-.36,0Z"/><path class="m" d="m117.39,65.68s.02-.08.03-.12c.12-.02.2.01.22.15-.09.07-.17.06-.25-.03Z"/><path class="j" d="m106.5,35.03c-.15,0-.32.04-.39-.16.15,0,.31-.02.39.16Z"/><path class="h" d="m131.82,69.94c.09.23.09.45,0,.68-.06-.23-.06-.45,0-.68Z"/><path class="i" d="m57,19.67c.24.02.3.17.27.38-.16-.07-.25-.2-.27-.38Z"/><path class="i" d="m13.12,39.54c.15.11.09.19-.04.25-.05-.09-.02-.18.04-.25Z"/><path class="m" d="m23.71,64.36c.15,0,.25.06.29.21-.15.01-.24-.06-.29-.21Z"/><path class="h" d="m149.91,28.97c.15-.13.26-.07.35.08-.12-.03-.23-.05-.35-.08Z"/><path class="h" d="m154.21,29.22c.1-.06.18-.04.26.03-.09.04-.18.03-.26-.03Z"/><path class="h" d="m154.7,29.26c.05-.06.1-.06.15,0-.05,0-.1,0-.15,0Z"/><path class="h" d="m13.6,39.42c.01.06,0,.11-.08.13-.06-.09,0-.12.08-.13Z"/><path class="h" d="m23.52,63.45c.07.02.09.06.09.13-.09,0-.14-.03-.09-.13Z"/><path class="h" d="m135.07,70.23c-.01-.15-.03-.29-.04-.44.25.13.26.27.04.44Z"/><path class="e" d="m24.08,28.82c-.07.14-.16.25-.33.27,0-.23.09-.34.33-.27Z"/><path class="e" d="m23.62,29.27c.01.09-.05.14-.12.17.02-.07.05-.13.12-.17Z"/><path class="e" d="m57.31,30.89s.04.06.05.1c-.04.23-.15.26-.32.12.02-.16.12-.22.27-.21Z"/><path class="j" d="m14.46,39.52c.18-.2.41-.24.66-.24,2.83,0,5.66,0,8.48,0,.04,0,.08.02.12.02,0,.14,0,.28,0,.42-2.42,0-4.83.02-7.25.02-.42,0-.83,0-1.25,0-.24,0-.42.05-.39.34.03.26.23.18.38.18,2.9,0,5.79,0,8.69-.01.5,0,.5,0,.54-.55-.05-.23-.06-.49-.07-.7,0-.23.1-.5.1-.76,0-2.47,0-4.95,0-7.42,0-.15,0-.29,0-.44,0-.18-.13-.24-.29-.25-.06-.19-.01-.35.14-.48.01.09-.01.22.1.24.12.02.16-.1.17-.2,0-.08,0-.16,0-.24.21-.13.45-.06.67-.06,3.98,0,7.96,0,11.94,0,.31,0,.62-.09.92.03-.01.17,0,.32.22.33.19.23.15.51.15.77,0,2.67,0,5.34,0,8.01,0,.17,0,.33,0,.5,0,.15.09.22.24.22.15,0,.29,0,.44,0,2.67,0,5.34,0,8.01,0,.29,0,.59-.04.84.16.03.18.14.23.3.2.19.2.17.46.17.7,0,4.09,0,8.17,0,12.26,0,.12,0,.25-.02.37-.1.51-.2.61-.73.62-1.27.02-2.54.01-3.81.02-1.52,0-3.04.01-4.56,0-.65,0-.87-.02-.87.9.01,2.63,0,5.25,0,7.88,0,.23.04.46-.05.68-.35-.02-.32.22-.32.45-.24.08-.49.08-.74.08-4.09,0-8.18,0-12.28,0-.12,0-.25-.02-.37-.03,0-.15-.02-.3.15-.39.04,0,.08-.01.13-.02.06,0,.12.01.19.01,3.7,0,7.41,0,11.11,0,.14,0,.29.03.42-.06.32.08.65.02.98.04.2,0,.31-.07.3-.28,0-.12,0-.25,0-.37-.03-.21-.22-.29-.32-.12-.22.36-.61.41-.93.6-.06,0-.12-.02-.18-.02-3.86,0-7.72,0-11.59,0-.1-.02-.16.02-.19.11-.2,0-.4,0-.56.13-.06-.12-.1-.23-.05-.37.39-.03.29-.34.29-.57,0-2.37,0-4.74,0-7.11,0-.62-.09-1.23-.13-1.84.06-.41.06-.42-.32-.42-2.97,0-5.95,0-8.92,0-.09,0-.21-.02-.25.14.17.24.44.15.67.15,2.64,0,5.28,0,7.93,0,.22,0,.46-.08.66.07-.02.15-.09.27-.22.34-2.84,0-5.67,0-8.51,0-.23,0-.46.04-.68-.04q-.06-.47-.52-.5c-.08-.14-.05-.29-.05-.43,0-4.08,0-8.16,0-12.24,0-.16-.04-.33.06-.49q.39-.03.25-.39Zm23.56-6.93c0-.07-.04-.11-.11-.08-.02,0-.03.06-.04.09-.08.03-.1.09-.06.17-.11.06-.11.17-.1.27.01.08.03.17.13.18.14.02.17-.09.19-.19,0-.06-.01-.12-.02-.18,0-.08,0-.17,0-.25Zm-.19,21.48c.27.06.15-.16.2-.27.13-.3.4-.45.7-.55.1-.03.19-.08.17-.21-.03-.13-.14-.13-.24-.14-.89-.1-.94-.06-.92.84,0,.12-.01.25.06.36l.03-.03Zm9.2-1.76c.17-.02.26-.1.28-.28.02-.27.06-.54.06-.81,0-3.27,0-6.55,0-9.82,0-.19-.02-.37-.05-.56-.02-.16-.15-.18-.28-.17-.09,0-.18,0-.27,0-.23,0-.46-.03-.69-.03-2.44,0-4.88,0-7.31,0-.5,0-1-.02-1.5-.03,0-.07,0-.14,0-.2.17-.12.12-.3.13-.46,0-.44,0-.87,0-1.31,0-2.45,0-4.9,0-7.35,0-.5,0-.5-.49-.52-.07,0-.14,0-.21-.01-.23-.15-.49-.08-.73-.08-3.4,0-6.8,0-10.2,0-.94,0-.84-.12-.85.82,0,2.84,0,5.67,0,8.51,0,.55-.06.61-.59.64-.17,0-.33,0-.5,0-2.81,0-5.63,0-8.44,0-.56,0-.55-.07-.55.53,0,3.57,0,7.13,0,10.7,0,.54,0,.54.54.54,2.75,0,5.5,0,8.26,0,.23,0,.46,0,.69,0,.34.02.57.24.6.58.01.15,0,.29,0,.44,0,2.84,0,5.67,0,8.51,0,.54,0,.55.42.55,3.65,0,7.3,0,10.95,0,.17,0,.34.03.44-.16.06,0,.11,0,.17-.01.39.05.5-.16.5-.52,0-2.82,0-5.65,0-8.47,0-.38-.02-.38-.49-.39-.06,0-.12-.01-.18-.02.08-.51.08-.51.61-.51,2.94,0,5.88,0,8.81,0,.22,0,.46.09.66-.1.08,0,.16,0,.24,0Zm-9.2-21.53c.37-.21.17-.54.15-.81-.02-.25-.28-.18-.46-.18-1.4,0-2.79,0-4.19,0-2.62,0-5.25,0-7.87,0-.18,0-.38-.05-.55.05-.06.04-.1.13-.11.21-.02.1.07.14.15.15.19.01.37.01.56.01,3.52,0,7.04,0,10.56,0,.27,0,.54.04.81.02.45-.02.73.19.92.57l.03-.03Zm0,8.54q-.17.95.59.95c.1,0,.21,0,.31,0,2.73,0,5.47,0,8.2,0,.54,0,.74.17.74.68,0,3.69,0,7.39,0,11.08,0,.42-.28.74-.71.81-.24.04-.5.06-.74.06-2.17,0-4.34,0-6.51.01-.21,0-.61-.15-.61.16,0,.26.41.13.64.13,2.5.01,5.01,0,7.51,0,.15,0,.29,0,.44,0,.23.01.35-.09.35-.33,0-.13,0-.25,0-.38,0-3.98,0-7.97,0-11.95,0-.13,0-.25,0-.38,0-.25-.13-.39-.38-.4-.17,0-.33,0-.5,0-2.61,0-5.22,0-7.82,0-.51,0-1.04.08-1.48-.45Zm-23.25,1.03c0-.09-.03-.17-.12-.2-.13-.04-.11.08-.12.15-.01.08,0,.17.1.2.11.03.13-.07.14-.15Zm23.32-8.45c-.17.15-.18.3-.04.47.04.04.07.04.1,0,.13-.17.14-.33-.06-.47Z"/><path class="i" d="m23.73,39.73v-.42c.22-.02.4-.07.4-.35,0-.19,0-.37,0-.56,0-2.53,0-5.06,0-7.59,0-.22-.05-.46.05-.67.16.01.28.07.29.25,0,.15,0,.29,0,.44,0,2.47,0,4.95,0,7.42,0,.26-.11.53-.1.76,0,.22.02.47.07.7-.25-.16-.48.14-.73.02Z"/><path class="i" d="m23.91,53.61c.13-.07.2-.2.22-.34.08.02.15.03.23.05.04.61.14,1.22.13,1.84-.01,2.37,0,4.74,0,7.11,0,.23.1.53-.29.57-.1-.2-.05-.41-.05-.61,0-2.6,0-5.21,0-7.81,0-.29.05-.59-.23-.8Z"/><path class="i" d="m24.25,63.2c.17-.14.37-.12.56-.13.03.04.05.08.08.11-.16.09-.14.24-.15.39-.27.02-.45-.08-.49-.37Z"/><path class="i" d="m14.21,53.07q.46.03.52.5c-.33,0-.52-.15-.52-.5Z"/><path class="i" d="m38.13,63.52c0-.23-.02-.47.32-.45,0,.22-.04.43-.32.45Z"/><path class="i" d="m14.46,39.52q.14.36-.25.39c-.03-.2-.02-.38.25-.39Z"/><path class="i" d="m24.59,29.48c0,.08.02.16,0,.24,0,.1-.05.22-.17.2-.12-.02-.09-.15-.1-.24.02-.15.13-.19.26-.19Z"/><path class="i" d="m38.35,29.78c-.22-.01-.24-.16-.22-.33.19.04.24.16.22.33Z"/><path class="i" d="m48.33,39.64c-.16.03-.28-.01-.3-.2.17-.04.26.04.3.2Z"/><path class="j" d="m60.93,49.31c.23-.01.46-.03.69-.03,14.12,0,28.24,0,42.36,0q.88,0,.88.91c0,3.53,0,7.05,0,10.58,0,.17,0,.33,0,.5,0,.24-.12.34-.35.33-.15,0-.29,0-.44,0-14.18,0-28.37,0-42.55,0-.94,0-.84.05-.84-.84,0-3.57,0-7.13,0-10.7,0-.17.02-.33.02-.5.15,0,.23-.09.23-.25Zm21.84,11.87h0c6.99,0,13.98,0,20.96,0,.17,0,.33,0,.5,0,.15,0,.23-.06.23-.22,0-.17,0-.33,0-.5,0-3.3,0-6.59,0-9.89,0-.89.11-.83-.85-.83-13.73,0-27.45,0-41.18,0-.29,0-.58.01-.88,0-.31-.02-.45.07-.44.42.01,3.55,0,7.09,0,10.64,0,.33.1.4.43.4,7.07-.01,14.14-.01,21.21-.01Z"/><path class="i" d="m60.93,49.31c0,.15-.08.24-.23.25-.05-.2,0-.31.23-.25Z"/><g><path class="g" d="m125.17,29.02c-.41,0-.83,0-1.24.01-.2,0-.36-.04-.47-.23-.34-.55-.7-1.1-1.05-1.65-.35-.55-.69-1.1-1.04-1.65-.01-.03-.02-.08-.03-.08-.04,0-.05.03-.03.07-.14.68-.03,1.37-.06,2.05,0,.17.01.33,0,.5-.03.31.15.75-.1.89-.39.21-.9.1-1.35.06-.22-.02-.16-.26-.16-.41,0-.85,0-1.71,0-2.56,0-.58-.02-1.17-.02-1.75,0-.55.02-.56.55-.57,1.08-.02,1.09-.02,1.62.9.46.8,1.09,1.51,1.45,2.37.03.07.13.1.19.16,0,.1.02.21.15.17.08-.02.08-.11.04-.19,0-.95.02-1.91.03-2.86,0-.55,0-.56.55-.56,1.23,0,1.05-.15,1.06,1.05.01,1.37,0,2.74.01,4.11-.03.05-.06.1-.09.15Z"/><path class="g" d="m131.82,69.94c0-.64,0-1.29.02-1.93,0-.62.01-.63.62-.64.87,0,1.75,0,2.62,0,.53,0,1.01.11,1.24.64.23.51.03.93-.34,1.28-.02.11.04.17.1.22.36.34.45.75.25,1.19-.2.44-.6.61-1.06.63-.48.02-.96,0-1.43,0-.5,0-1,0-1.5,0-.48,0-.48,0-.51-.47,0-.08-.01-.17-.02-.25.09-.23.09-.45,0-.68Zm3.21-.15c-.46-.17-.94-.05-1.41-.08-.12,0-.25.02-.36.06-.12.04-.22.12-.21.27,0,.15.09.26.21.27.61.04,1.22.19,1.81-.07.22-.17.21-.31-.04-.44Zm-.89-1.46s0,0,0,0c-.25,0-.5-.02-.75,0-.16.02-.34.08-.35.29-.02.25.18.33.36.34.46.02.91.01,1.37,0,.21,0,.28-.12.27-.33,0-.2-.08-.31-.29-.32-.21,0-.41,0-.62,0Z"/><path class="g" d="m148.09,28.9c-.11-.09-.22-.19-.34-.28-.65-.48-.68-1.17-.51-1.85.18-.74.72-1.2,1.47-1.38.33-.08.65.02.97.12.39.11.44.07.46-.32.01-.35.01-.71,0-1.06,0-.28.08-.4.39-.42,1.18-.07,1.18-.08,1.18,1.11,0,1.25,0,2.5,0,3.74,0,.45-.01.45-.45.47-.33,0-.67.01-1,.01-.09-.14-.2-.21-.35-.08-.24.06-.49.12-.73.18-.12-.09-.24-.1-.36,0-.24-.08-.48-.16-.72-.24,0,0,0-.04,0-.04l-.02.03Zm2.02-2.49c.04-.14,0-.23-.13-.28-.59-.4-1.08-.2-1.13.48-.03.43-.02.87,0,1.31.02.44.27.7.63.71.36.01.66-.27.67-.73.02-.5.06-1-.04-1.49Z"/><path class="g" d="m155.72,68.07c.27-.48.69-.69,1.23-.68.71,0,1.42,0,2.13.02.81.03,1.22.44,1.24,1.26.02.75,0,1.5,0,2.25,0,.28-.08.44-.39.41-.08,0-.17,0-.25,0-.57,0-.59,0-.6-.56,0-.31-.09-.46-.43-.44-.46.02-.92.02-1.38,0-.32-.01-.47.1-.44.43.01.12,0,.25,0,.37,0,.12-.08.19-.2.19-.27,0-.54.01-.81,0-.24-.01-.22-.21-.22-.37,0-.85.01-1.71.02-2.56.09-.09.13-.19.08-.31Zm2.24,1.29h0c.25,0,.5,0,.75,0,.25,0,.41-.06.38-.35-.02-.25.09-.61-.3-.64-.54-.04-1.08-.04-1.61,0-.38.03-.31.37-.33.63-.02.26.1.38.37.37.25-.01.5,0,.75,0Z"/><path class="g" d="m130.93,26.06c-.5.17-.63.3-.64.77-.02.58,0,1.17,0,1.75,0,.44-.02.46-.46.45-1.28-.01-1.06.16-1.08-1.03,0-.67,0-1.33,0-2,0-.47.02-.5.5-.47.37.02.78-.19,1.11.19.1.12.24-.04.33-.1.73-.48,1.43-.24,2.09.12.38.21.59.6.61,1.04.04.64.02,1.29.03,1.93,0,.2-.08.32-.29.31-.37,0-.8.13-1.1-.05-.33-.2-.11-.65-.14-.99-.03-.35-.01-.71-.02-1.06,0-.38-.15-.68-.51-.84-.13-.12-.26-.16-.41-.03Z"/><path class="g" d="m144.2,26.05c-.57.17-.71.31-.73.84-.02.58-.02,1.17,0,1.75,0,.3-.11.41-.4.4-.25-.01-.5-.02-.75,0-.34.03-.42-.15-.42-.45.01-.87.01-1.75,0-2.62,0-.31.08-.48.42-.44.38.05.79-.11,1.16.11.1.24.1.24.4,0,1.03-.72,2.72.02,2.71,1.53,0,.5,0,1,0,1.5,0,.25-.07.36-.35.39-1.2.09-1.2.1-1.2-1.1,0-.35,0-.71,0-1.06,0-.38-.14-.69-.55-.8-.09-.09-.18-.14-.29-.02Z"/><path class="g" d="m154.7,29.26c-.08,0-.15,0-.23,0-.08-.07-.16-.1-.26-.03-.77-.04-1.27-.5-1.7-1.07.03-.06,0-.09-.06-.08-.33-.88-.16-1.68.53-2.21.82-.63,1.72-.8,2.67-.3.35.19.68.37.97.71.73.85.19,2.17-.68,2.63-.35.18-.72.3-1.1.37-.05-.05-.1-.05-.15,0Zm-.49-3.43c-.06-.02-.08,0-.07.07-.39.84-.25,1.71-.1,2.55.07.37.6.53.86.31.19-.16.37-.36.39-.61.05-.62.08-1.25-.02-1.87-.09-.58-.49-.73-1.06-.45Z"/><path class="g" d="m141.08,28.26c-.43.56-1,.87-1.7.96-.22-.07-.43-.08-.65.01-.59-.03-1.09-.25-1.54-.66-.84-.78-.74-2.16.3-2.82.94-.59,2.14-.71,3.28.23.19.15.25.38.36.57.11.19.02.44.21.58-.17.2-.34.13-.5.14-.67,0-1.33,0-2,0-.54,0-.55.01-.54.57,0,.14,0,.29.04.43.09.36.32.59.63.59.33,0,.55-.17.66-.47.03-.08.03-.16.04-.24.07-.08.08-.17.07-.26.39,0,.79-.02,1.18-.02.19,0,.26.09.22.27-.07.02-.1.06-.08.13Zm-2.67-2.25c-.07.02-.12.05-.07.13-.04.64-.04.65.62.64.2,0,.41-.02.61-.03.08.02.12-.01.11-.1.02-.38-.04-.75-.42-.91-.33-.14-.64-.04-.85.27Z"/><path class="g" d="m136.64,25.48c-.1,0-.21,0-.31-.01-.31-.03-.39.12-.39.41.01.88,0,1.75,0,2.63,0,.52,0,.53-.51.53-1.28-.01-1.03.16-1.07-1.05-.02-.69-.01-1.38,0-2.07,0-.3-.08-.48-.42-.45-.08,0-.17,0-.25-.02-.11-.03-.17-.11-.17-.23,0-.12.05-.2.17-.21.17-.02.33-.03.5-.04.07.04.11.01.11-.07q.13-.64.81-.64c.18,0,.37,0,.55,0,.17,0,.25.07.28.25.09.48.1.48.6.49.06,0,.12,0,.18,0,.05.18.01.34-.09.48Z"/><path class="g" d="m126.29,25.53c.4,0,.79,0,1.19,0,.21,0,.3.09.3.3,0,.96,0,1.91,0,2.87,0,.23-.09.35-.33.34-.4,0-.79,0-1.19-.01-.07-.3.04-.61-.09-.9,0-.32,0-.64,0-.96.16-.54-.02-1.1.12-1.64Z"/><path class="g" d="m126.22,23.76c.43-.16.86-.05,1.3-.06.18,0,.27.1.27.27,0,.1,0,.21,0,.31,0,.46,0,.46-.44.47-.35,0-.71,0-1.06,0-.02-.33-.05-.66-.07-.99Z"/><path class="g" d="m126.29,25.53c-.14.54.04,1.1-.12,1.64-.08-.46-.03-.93-.04-1.4,0-.11.04-.2.15-.24Z"/><path class="g" d="m126.22,23.76c.02.33.05.66.07.99-.26-.31-.15-.65-.07-.99Z"/><path class="g" d="m126.18,28.12c.13.29.02.6.09.9-.24-.28-.11-.59-.09-.9Z"/><path class="g" d="m136.64,25.48c.1-.15.14-.31.09-.48.28.24.26.35-.09.48Z"/><path class="g" d="m143.88,25.63c-.3.24-.3.24-.4,0,.13,0,.27,0,.4,0Z"/><path class="g" d="m130.93,26.06c.14-.13.28-.09.41.03-.14.06-.28.09-.41-.03Z"/><path class="g" d="m123.6,27.13c.04.07.04.17-.04.19-.13.03-.15-.07-.15-.17.06,0,.12,0,.19-.01Z"/><path class="g" d="m144.2,26.05c.11-.11.2-.06.29.02-.1.06-.2.08-.29-.02Z"/><path class="g" d="m155.72,68.07c.05.12,0,.22-.08.31-.07-.13-.04-.23.08-.31Z"/><path class="g" d="m139.76,27.88c.02.1,0,.19-.07.26-.03-.1-.03-.2.07-.26Z"/><path class="g" d="m152.45,28.06c.06,0,.08.03.06.08-.04-.01-.06-.04-.06-.08Z"/><polygon class="g" points="148.09 28.9 148.11 28.87 148.11 28.91 148.09 28.9"/><path class="g" d="m125.17,29.02s.06-.1.09-.15c.02.08,0,.13-.09.15Z"/><path class="g" d="m121.3,25.51s-.01-.07.03-.07c0,0,.02.05.03.08,0,0-.03.01-.03.01h-.03Z"/><path class="g" d="m134.29,24.9c0,.08-.04.11-.11.07.02-.06.06-.08.11-.07Z"/><path class="g" d="m141.08,28.26c-.01-.07.02-.11.08-.13.01.07-.02.11-.08.13Z"/><path class="g" d="m150.1,26.4c-.12-.06-.16-.15-.13-.28.14.05.18.14.13.28Z"/><path class="g" d="m154.21,25.83s-.03.07-.07.07c-.01-.06.01-.08.07-.07Z"/><path class="g" d="m139.56,26.75c.01-.06.05-.09.11-.1,0,.08-.03.12-.11.1Z"/><path class="g" d="m138.41,26.01s-.05.09-.07.13c-.05-.08,0-.11.07-.13Z"/><path class="g" d="m99.62,40.17q-.15-.55-.69-.55c-.21,0-.42,0-.62,0-.22,0-.4.03-.44.32-.05.4-.38.21-.6.23-.23.02-.26-.16-.26-.34,0-.52,0-1.04,0-1.56,0-.24.11-.34.34-.34.77,0,1.54-.02,2.31.02.68.04.92.5.63,1.13-.06.14-.11.23-.04.39.27.67.26.68-.51.72-.03-.03-.07-.04-.12-.03Zm-.93-1.11s0,0,0,0c.21,0,.41,0,.62,0,.14,0,.22-.1.22-.24,0-.16-.04-.3-.21-.32-.41-.05-.83-.04-1.24.02-.17.02-.22.17-.21.33.02.15.12.22.25.23.19.01.37,0,.56,0Z"/><path class="g" d="m93.95,39.8c0,.09-.01.18-.02.27-.1-.03-.17-.02-.2.09-.12,0-.25.01-.37.01-.18,0-.27-.09-.27-.26,0-.46-.02-.92.02-1.37.03-.35.26-.56.69-.59.64-.03,1.29-.04,1.94,0,.47.03.69.3.71.79.02.31.01.62,0,.94,0,.48-.01.48-.48.5-.1,0-.21,0-.31,0,.01-.06-.01-.08-.07-.07.04-.33-.06-.52-.44-.49-.35.02-.7.02-1.06.03-.17-.06-.22-.01-.14.15Zm.83-.73h0c.19,0,.37,0,.56,0,.14,0,.23-.07.24-.23,0-.16-.02-.32-.19-.35-.41-.08-.82-.06-1.23,0-.17.02-.22.17-.22.33,0,.19.12.25.28.26.19,0,.37,0,.56,0Z"/><path class="g" d="m86.32,38.79c.44.17.9.06,1.36.08.31.01.56.09.78.31.29.3.28.57-.04.82-.16.12-.33.17-.52.17-.73,0-1.46,0-2.19,0-.02,0-.04,0-.06,0-.17,0-.27-.07-.27-.26,0-.19.09-.26.27-.26.48,0,.96,0,1.44,0,.17,0,.33,0,.5,0,.11,0,.22-.06.22-.18,0-.12-.1-.18-.2-.19-.33-.01-.67-.01-1-.02-.25,0-.5,0-.74-.07-.29-.09-.47-.27-.48-.58-.01-.31.17-.5.45-.6.12-.04.24-.07.37-.07.69,0,1.37,0,2.06,0,.18,0,.33.03.34.26,0,.24-.17.25-.34.26-.44,0-.87,0-1.31,0-.2,0-.42-.06-.6.08-.17.08-.18.17,0,.25Z"/><path class="g" d="m61.57,39.4c-.37-.08-.75-.03-1.12-.04-.21,0-.42-.02-.62-.09-.26-.1-.42-.28-.41-.56,0-.29.19-.46.45-.53.16-.04.33-.05.49-.05.52,0,1.04-.01,1.56,0,.2,0,.53-.11.52.25,0,.31-.3.21-.49.22-.44.02-.88,0-1.31.02-.14,0-.33-.03-.34.17-.01.24.2.22.36.22.33,0,.67,0,1,0,.16,0,.34.01.49.07.22.08.38.25.4.51.01.26-.14.43-.35.55-.15.08-.32.11-.48.11-.65,0-1.29,0-1.94,0-.17,0-.35,0-.36-.24,0-.25.17-.25.34-.25.52,0,1.04,0,1.56,0,.17,0,.35.01.35-.24.01-.09-.03-.12-.11-.12Z"/><path class="g" d="m64.01,39.7c.48.13.97.04,1.45.06.29,0,.48.08.46.41-.05.03-.1.06-.14.1-.58,0-1.17,0-1.75-.01-.76-.01-.97-.22-.98-.96,0-.25,0-.5,0-.75-.01-.28.07-.43.38-.42.71.01,1.42.01,2.12,0,.31,0,.41.14.37.42-.05.03-.1.06-.16.09-.52,0-1.04,0-1.57,0-.06-.07-.11-.07-.16.01,0,0-.01,0-.01,0-.23.08-.22.18-.02.29.56.16,1.14.03,1.7.08.01.1.03.19.04.29-.57.1-1.15-.03-1.72.09-.24.08-.22.18-.03.29Z"/><path class="g" d="m70.81,38.65c-.28.24-.04.33.14.34.37.03.75,0,1.12.03.16,0,.45-.11.46.16,0,.27-.28.16-.44.17-.37.02-.75.02-1.12.03-.12,0-.27.02-.25.2.01.12.12.17.23.17.35.01.71.01,1.06.02.17,0,.33,0,.5,0,.14,0,.23.07.23.23,0,.15-.08.23-.23.24-.25.01-.5.02-.75.02-.31,0-.62,0-.93,0-.46.01-.81-.15-.98-.6.1-.5.03-1,.05-1.5.83-.01,1.65-.02,2.48-.03.17,0,.36,0,.36.23,0,.28-.21.26-.4.26-.45,0-.91.01-1.36.02-.06-.07-.11-.05-.15.02Z"/><path class="g" d="m76.19,39.92c0,.22-.08.35-.33.34-.63-.01-1.25.01-1.88-.02-.49-.02-.68-.21-.7-.69-.04-1.01-.13-1.49,1.24-1.43.35.02.71-.01,1.06,0,.2.01.54-.12.55.22,0,.38-.36.25-.58.26-.33.02-.67,0-1,0-.44.01-.47.05-.47.53,0,.54.03.6.47.61.52.02,1.04.01,1.56.02.03.05.05.09.08.14Z"/><path class="g" d="m102.66,37.93c.42,0,.83,0,1.25,0,.17,0,.34,0,.35.25.01.24-.14.26-.32.27-.9.08-.9.09-.9,1.01,0,.08,0,.17,0,.25-.01.42-.31.61-.7.45-.14-.06-.16-.18-.16-.31,0-.29,0-.58,0-.88-.02-.47-.05-.5-.5-.52-.19,0-.38,0-.56-.02-.13,0-.24-.05-.23-.22,0-.15.08-.23.22-.26.12-.02.25-.03.37-.03.4,0,.79,0,1.19,0Z"/><path class="g" d="m90.85,37.93c.44,0,.88,0,1.31,0,.18,0,.33.02.32.27,0,.25-.16.24-.34.25q-.87.06-.87.91c0,.1,0,.21,0,.31-.01.5-.06.53-.53.51-.24-.01-.33-.11-.33-.34,0-.31-.01-.63,0-.94,0-.31-.11-.47-.44-.45-.17,0-.33,0-.5,0-.17,0-.28-.05-.27-.25,0-.18.1-.27.27-.27.46,0,.92,0,1.38,0h0Z"/><path class="g" d="m77.71,38.67c-.26-.13-.53-.03-.8-.07-.14-.02-.23-.08-.23-.23,0-.15.09-.23.23-.24.21,0,.41,0,.62,0,.66,0,1.33,0,1.99,0,.16,0,.28.06.28.25,0,.2-.13.22-.28.25-.27.05-.64-.16-.8.15-.11.22-.04.53-.05.8,0,.06,0,.12,0,.19,0,.48-.08.54-.54.5-.25-.02-.31-.14-.31-.36,0-.37-.02-.75-.03-1.12.02-.08,0-.11-.09-.11Z"/><path class="g" d="m66.48,38.47c-.06-.43.25-.34.48-.35.24-.01.34.1.33.34,0,.29.01.58,0,.87-.01.33.13.44.45.43.44-.02.87,0,1.31,0,.16,0,.29.03.29.23,0,.19-.13.24-.29.24-.62,0-1.25.03-1.87,0-.5-.02-.62-.19-.71-.75.09-.34.09-.67,0-1.01Z"/><path class="g" d="m69.89,38.15c-.01.5.05,1-.05,1.5-.05-.5-.13-1,.05-1.5Z"/><path class="g" d="m66.48,38.47c.09.34.09.67,0,1.01-.06-.34-.05-.67,0-1.01Z"/><path class="g" d="m65.76,39.31c-.01-.1-.03-.19-.04-.29.22.07.23.17.04.29Z"/><path class="g" d="m64.01,39.7c-.19-.12-.22-.22.03-.29,0,.1-.02.19-.03.29Z"/><path class="g" d="m64.02,38.94c-.2-.11-.21-.21.02-.29,0,.1-.01.19-.02.29Z"/><path class="g" d="m93.74,40.17c.03-.11.1-.13.2-.09.07.09.02.15-.07.18-.06.02-.11-.01-.13-.09Z"/><path class="g" d="m93.95,39.8c-.07-.16-.02-.21.14-.15-.01.08-.06.13-.14.15Z"/><path class="g" d="m86.32,38.79c-.18-.09-.17-.17,0-.25,0,.09,0,.17,0,.25Z"/><path class="g" d="m64.05,38.65c.04-.08.1-.08.16-.01-.05,0-.1,0-.16.01Z"/><path class="g" d="m99.62,40.17s.08,0,.12.03c-.06.07-.09.04-.12-.03Z"/><path class="g" d="m65.78,40.26s.1-.06.14-.1c-.01.08-.06.11-.14.1Z"/><path class="g" d="m95.59,40.11c.06-.01.08.01.07.07-.04,0-.06-.03-.07-.07Z"/><path class="g" d="m65.77,38.63c.05-.03.1-.06.16-.09-.02.09-.07.11-.16.09Z"/><path class="g" d="m70.81,38.65c.04-.07.09-.09.15-.02-.05,0-.1.01-.15.02Z"/><path class="g" d="m77.71,38.67c.08,0,.11.03.09.11-.06-.01-.08-.05-.09-.11Z"/><path class="g" d="m61.57,39.4c.08,0,.12.03.11.12-.07-.01-.1-.05-.11-.12Z"/><path class="g" d="m76.19,39.92s-.05-.09-.08-.14c.07.02.1.07.08.14Z"/></g><path class="j" d="m150.82,47.29c.56.03,1.13.05,1.65.24.7.26,1.36.6,2.06.86.7.26,1.28.68,1.88,1.1.51.35.85.83,1.24,1.29.63.74.91,1.66,1.31,2.52.03.07,0,.16,0,.25-.02.08,0,.13.09.15.21.89.38,1.78.23,2.71-.09.54-.07,1.12-.32,1.62-.38.76-.62,1.57-1.12,2.29-.58.81-1.3,1.42-2.06,2.03-.43.35-.95.47-1.42.71-.81.42-1.71.57-2.61.63-1.07.08-2.11-.14-3.15-.39-.54-.13-1.02-.41-1.54-.57-.83-.26-1.48-.79-2.07-1.37-.65-.64-1.21-1.36-1.59-2.21-.21-.47-.49-.91-.6-1.4-.19-.84-.31-1.71-.25-2.57.04-.64.14-1.28.24-1.92.06-.38.37-.68.44-1.07.04-.23.19-.43.29-.65.19,0,.23-.12.2-.28.32-.54.72-1.01,1.11-1.49.34-.42.86-.69,1.3-1.03,1.23-.94,2.66-1.32,4.17-1.41.17.07.34.09.5-.03Zm-5.76,13.27c.02.07.06.11.13.13.03.05-.05.17.09.13.02,0-.04-.1-.09-.12-.04-.04-.08-.08-.13-.13-.02-.07-.06-.11-.12-.13,0-.1-.03-.19-.12-.25-.04-.04-.08-.08-.13-.13-.02-.06-.06-.11-.13-.12,0-.02,0-.03-.01-.05,0,0-.02,0-.03-.01.02.02.03.04.05.05.04.04.08.08.13.13.02.07.06.11.13.13,0,.1.03.19.12.25.04.04.08.08.13.12Zm2.76-12.01c-.14,0-.29-.03-.38.12-.2-.02-.38.04-.53.15-.7.51-1.42,1-1.99,1.68-.83,1-1.4,2.11-1.67,3.38-.2.94-.22,1.89-.07,2.85.16,1.01.57,1.9,1.01,2.8.03.05.07.11.15.09.11-.08.02-.23.1-.33.38.49.75,1,1.14,1.47.64.76,1.37,1.39,2.35,1.68.51.15.96.47,1.48.55.97.15,1.92.3,2.92.14.76-.12,1.45-.37,2.15-.68,1-.44,1.85-1.05,2.52-1.9.33-.42.74-.78.93-1.31.15-.42.31-.83.49-1.24.38-.85.37-1.77.38-2.66,0-.82-.2-1.62-.53-2.39-.32-.74-.65-1.45-1.18-2.06-.05-.06-.1-.13-.16-.19-.66-.76-1.43-1.37-2.36-1.75-.19-.08-.38-.15-.56-.24-.32-.17-.64-.38-.96-.48-.57-.18-1.19-.27-1.79-.24-1.68.09-3.28.46-4.6,1.59-.11.09-.23.18-.34.27-1.07.87-1.8,1.98-2.27,3.26-.1.27-.21.53-.26.83-.16,1.08-.23,2.14-.03,3.23.07.39.26.75.27,1.14-.32,0-.32-.28-.37-.48-.14-.52-.23-1.05-.26-1.59-.08-1.39.13-2.72.76-3.98.5-1.02,1.16-1.89,2.04-2.62.4-.33.87-.56,1.21-.97.14,0,.28.01.38-.12.02,0,.04-.01.06-.02,0,0,0-.02,0-.04-.04,0-.06.01-.06.07Zm1.05-.44s-.02-.03-.03-.04c-.02,0-.04,0-.05,0-.03.03-.02.05.03.05.02,0,.03-.02.05-.02Zm-.67.28s.03-.02.05-.03c-.01-.01-.03-.04-.04-.04-.05,0-.08.02-.06.05,0,.01.03.01.05.02Z"/><path class="m" d="m150.82,47.29c-.16.12-.33.1-.5.03.16-.1.33-.09.5-.03Z"/><path class="m" d="m143.74,51.25c.03.16-.01.28-.2.28.04-.11.1-.21.2-.28Z"/><path class="m" d="m159.06,53.7c-.09-.01-.12-.06-.09-.15l.09.15Z"/><path class="j" d="m118.5,55.74c.09-.8.04-1.65.3-2.38.31-.89.63-1.8,1.25-2.58.72-.92,1.54-1.68,2.5-2.33.6-.4,1.26-.63,1.93-.82,1.34-.38,2.69-.46,4.06-.1.32.09.55.31.87.42,1.27.43,2.46,1.09,3.37,2.07,1.47,1.58,2.35,3.48,2.35,5.68,0,1.15-.29,2.26-.79,3.32-.38.83-.88,1.55-1.5,2.21-.87.93-1.93,1.55-3.12,1.99-1.89.71-3.77.6-5.62-.05-1.19-.42-2.39-.92-3.22-1.93-.65-.78-1.27-1.56-1.69-2.54-.42-.97-.44-1.97-.69-2.95Zm2.02-4.57c.07-.02.11-.06.13-.13.11-.05.13-.14.12-.25.08,0,.11-.05.13-.13.07-.01.11-.05.13-.12.02,0,.04-.01.05-.02,0,0,0-.03,0-.04-.02.02-.03.05-.05.07-.08,0-.11.05-.12.13-.07.01-.11.06-.13.13-.11.05-.13.14-.12.25-.07,0-.11.05-.13.13-.02,0-.04,0-.05.02,0,0,0,.03,0,.04.02-.02.04-.04.06-.07Zm1.51-1.62c-.07.02-.11.06-.12.13-.02,0-.03,0-.05.02,0,0,0,.02-.01.03.02-.02.04-.04.06-.05.06-.02.11-.06.13-.13.06-.02.11-.06.13-.13.11,0,.2-.02.25-.12.01,0,.03-.01.04-.02,0,0,0-.02,0-.03-.02.02-.03.04-.05.06-.11,0-.19.03-.25.12l-.13.13Zm-.5.38c-.06.02-.11.06-.12.13-.09,0-.16.03-.19.13-.01.04.02.08.07.06.09-.03.11-.11.11-.2.07-.01.11-.06.13-.12.02,0,.03,0,.04-.02,0,0,0-.02.01-.03-.02.02-.03.03-.05.05Zm-2.02,4.85c-.08.03-.13.07-.07.16,0,.17-.02.33-.02.5-.04.84.07,1.69.31,2.47.29.97.78,1.9,1.49,2.67.12.13.21.35.36.41.49.2.83.6,1.24.9.77.56,1.63.94,2.54,1.12,1.53.3,3.05.29,4.52-.35,1.21-.53,2.28-1.22,3.09-2.28.42-.54.72-1.13,1.02-1.75.46-.98.68-2.01.66-3.05-.03-1.54-.52-2.98-1.42-4.25-.77-1.09-1.75-1.93-3.01-2.45-.31-.13-.67-.18-.96-.39-.68-.51-1.51-.51-2.27-.48-1.04.05-2.1.14-3.05.68-.43.24-.87.46-1.28.74-.76.53-1.38,1.19-1.91,1.96-.14.2-.31.39-.47.58-.09-.1.06-.3-.18-.38-.79,1.62-1.29,3.27-.88,5.19.02-.16.04-.22.03-.28-.17-.88.02-1.73.14-2.59.03-.2,0-.43.29-.48-.06.45-.11.9-.17,1.35Z"/><path class="j" d="m156.93,24.84c0-.3,0-.52,0-.75,0-.23.1-.35.34-.34.23,0,.5-.04.56.26.05.29-.16.52-.41.51-.26,0-.26.23-.48.32Z"/><path class="h" d="m157.65,24.78s.03.03.03.04c0,.01-.02.02-.04.04-.01-.01-.03-.03-.03-.04,0-.01.02-.02.04-.04Z"/><path class="j" d="m36.89,30.78c.49.02.49.02.49.52,0,2.45,0,4.9,0,7.35,0,.44,0,.87,0,1.31,0,.16.04.34-.13.46-.2,0-.37-.05-.36-.31,0-.17,0-.33,0-.5,0-2.94,0-5.88,0-8.82Z"/><path class="j" d="m36.9,52.94c.47.01.49.01.49.39,0,2.82,0,5.65,0,8.47,0,.36-.11.56-.5.52,0-3.13,0-6.25,0-9.38Z"/><path class="m" d="m47.03,40.67c.13,0,.26.01.28.17.03.18.05.37.05.56,0,3.27,0,6.55,0,9.82,0,.27-.04.54-.06.81-.01.17-.11.26-.28.28,0-3.88,0-7.76,0-11.64Z"/><path class="j" d="m47.03,40.67c0,3.88,0,7.76,0,11.64-.08,0-.16,0-.24,0,0-.23-.02-.46-.02-.69,0-3.65,0-7.3,0-10.95.09,0,.18,0,.27,0Z"/><path class="i" d="m36.89,30.78c0,2.94,0,5.88,0,8.82,0,.17,0,.33,0,.5-.01.27.16.31.36.31,0,.07,0,.14,0,.2-.57.03-.6.02-.6-.49,0-3.12.01-6.24.02-9.36.07,0,.14,0,.21.01Z"/><path class="j" d="m36.9,52.94v9.38c-.07,0-.12,0-.18.01-.07-.14-.05-.28-.05-.43,0-2.87,0-5.74,0-8.62,0-.12-.02-.25.05-.36.06,0,.12.01.18.02Z"/><path class="i" d="m14.58,40.34c-.02.08-.03.17-.14.15-.09-.02-.11-.12-.1-.2,0-.07-.01-.19.12-.15.08.03.12.11.12.2Z"/><path class="i" d="m38.02,32.84c0,.06.03.12.02.18-.01.11-.05.21-.19.19-.1-.01-.12-.1-.13-.18-.02-.1,0-.21.1-.27.04.1.11.13.2.08Z"/><path class="i" d="m37.9,31.89c.2.14.2.3.06.47-.03.04-.07.04-.1,0-.14-.17-.13-.33.04-.47Z"/><path class="m" d="m24.99,62.96c0,.07.01.14.02.21-.04,0-.08.01-.13.02-.03-.04-.05-.08-.08-.11.03-.1.09-.14.19-.11Z"/><path class="i" d="m37.8,54.1s.03-.03.03-.03c0,0-.03.03-.03.03Z"/><path class="i" d="m37.81,30.8s.03-.03.03-.03c0,0-.03.03-.03.03Z"/><path class="i" d="m37.88,32.6s.02-.08.04-.09c.07-.02.1.02.11.08-.05-.04-.1-.04-.14,0Z"/><path class="f" d="m37.88,32.6s.09-.05.14,0c0,.09,0,.17,0,.25-.1.05-.16.03-.2-.08-.05-.08-.03-.13.06-.17Z"/><path class="m" d="m144.06,58.32s.03.05,0,.07c-.04.38.02.71.38.92,0,0,0-.02,0-.02-.08.1.01.25-.1.33-.08.01-.13-.04-.15-.09-.44-.89-.86-1.79-1.01-2.8-.15-.97-.13-1.91.07-2.85.27-1.26.84-2.38,1.67-3.38.57-.68,1.29-1.17,1.99-1.68.15-.11.33-.17.53-.15,0,0,0,0,0,0-.34.4-.81.64-1.21.97-.88.73-1.54,1.6-2.04,2.62-.62,1.26-.83,2.6-.76,3.98.03.54.12,1.07.26,1.59.05.2.06.47.37.48Z"/><path class="m" d="m147.81,48.55c-.09.14-.24.12-.38.12,0,0,0,0,0,0,.09-.16.24-.13.38-.12h0Z"/><path class="m" d="m148.87,48.12s-.03.02-.05.02c-.06,0-.07-.02-.03-.05.01-.01.04-.01.05,0,.01,0,.02.02.03.04Z"/><path class="m" d="m145.19,60.7c.06.02.11.11.09.12-.14.04-.06-.08-.09-.13,0,0,0,0,0,0Z"/><path class="m" d="m144.81,60.2c.1.06.12.15.12.25,0,0,0,0,0,0-.09-.06-.12-.15-.12-.25,0,0,0,0,0,0Z"/><path class="m" d="m148.2,48.4s-.05,0-.05-.02c-.02-.04,0-.06.06-.05.02,0,.03.02.04.04-.02.01-.03.02-.05.03Z"/><path class="m" d="m147.82,48.56c0-.05.01-.08.06-.07,0,.01,0,.03,0,.04-.02.01-.04.01-.06.02,0,0,0,0,0,0Z"/><path class="m" d="m144.56,59.94s-.03-.04-.05-.05c.01,0,.03,0,.03.01,0,.01,0,.03.01.05h0Z"/><path class="m" d="m144.56,59.95c.07.02.11.06.13.12h0s-.08-.09-.13-.13c0,0,0,0,0,0Z"/><path class="m" d="m144.68,60.07s.08.08.13.13c0,0,0,0,0,0-.07-.02-.11-.06-.13-.13,0,0,0,0,0,0Z"/><path class="m" d="m145.07,60.57s-.08-.08-.13-.12c0,0,0,0,0,0,.07.02.11.06.12.13h0Z"/><path class="m" d="m145.06,60.58s.08.08.13.13c0,0,0,0,0,0-.07-.02-.11-.06-.13-.13,0,0,0,0,0,0Z"/><path class="m" d="m120.28,51.97s.02.06-.01.09c-.06,0-.16,0-.17.02-.2.44-.53.84-.45,1.36,0,0,.02,0,.02,0-.29.04-.26.27-.29.48-.12.86-.31,1.71-.14,2.59.01.06-.01.12-.03.28-.41-1.92.09-3.57.88-5.19.24.08.09.28.18.38Z"/><path class="m" d="m121.39,50.05c0,.09-.02.17-.11.2-.04.01-.08-.02-.07-.06.02-.09.1-.12.19-.13h0Z"/><path class="m" d="m120.65,51.06c-.01-.11.02-.2.12-.25h0c0,.1-.02.19-.12.24,0,0,0,0,0,0Z"/><path class="m" d="m122.4,49.3c-.05.1-.14.13-.25.12h0c.06-.09.14-.12.25-.12h0Z"/><path class="m" d="m121.4,50.06c.01-.07.06-.11.12-.13h0c-.01.06-.06.1-.13.12,0,0,0,0,0,0Z"/><path class="m" d="m121.53,49.93s.03-.03.05-.05c0,0,0,.02-.01.03-.01,0-.03.01-.04.02,0,0,0,0,0,0Z"/><path class="m" d="m121.9,49.68s-.04.04-.06.05c0-.01,0-.03.01-.03.01,0,.03-.01.05-.02,0,0,0,0,0,0Z"/><path class="m" d="m122.02,49.55c-.02.07-.06.11-.13.13,0,0,0,0,0,0,.01-.07.06-.11.12-.13,0,0,0,0,0,0Z"/><path class="m" d="m122.15,49.43c-.02.07-.06.11-.13.13,0,0,0,0,0,0,.04-.04.08-.08.13-.13,0,0,0,0,0,0Z"/><path class="h" d="m119.5,54.79c.01.07-.02.12-.07.16-.06-.09-.02-.13.07-.16Z"/><path class="m" d="m122.4,49.31s.03-.04.05-.06c0,.01,0,.02,0,.03-.01.01-.03.01-.04.02,0,0,0,0,0,0Z"/><path class="m" d="m121.03,50.56s.03-.05.05-.07c0,.01,0,.03,0,.04-.01.01-.03.02-.05.02,0,0,0,0,0,0Z"/><path class="m" d="m120.9,50.68c.01-.07.05-.12.12-.13,0,0,0,0,0,0-.01.07-.06.11-.13.12,0,0,0,0,0,0Z"/><path class="m" d="m120.78,50.81c.02-.07.05-.11.13-.13,0,0,0,0,0,0-.01.07-.05.12-.13.13,0,0,0,0,0,0Z"/><path class="m" d="m120.53,51.19c.01-.07.05-.12.13-.13,0,0,0,0,0,0-.02.06-.06.11-.13.13h0Z"/><path class="m" d="m120.52,51.18s-.04.04-.06.07c0-.01,0-.04,0-.04.01-.01.04-.01.05-.02,0,0,0,0,0,0Z"/><path class="e" d="m26.37,58.32c-.19-.13-.38-.24-.56-.38-.11-.08-.14-.2-.1-.33.04-.16.17-.15.3-.16.6-.06.6-.06.6-.67,0-1.29,0-2.58,0-3.88,0-.48.02-.49.49-.49,2.4,0,4.79,0,7.19,0,.49,0,.72.23.72.72,0,1.27,0,2.54,0,3.81,0,.44,0,.45.45.5.16.02.26.03.3.23.04.18.03.31-.12.43-.63.5-1.25,1-1.88,1.5-.77.62-1.54,1.23-2.31,1.84-.1.08-.19.16-.3.23-.31.22-.44.21-.73-.06-.12-.11-.25-.22-.37-.33.03-.09.06-.19.09-.28.57.41.58.42,1.06.04.72-.57,1.43-1.16,2.14-1.73.53-.42,1.06-.82,1.59-1.23.09,0,.17-.05.15-.14-.03-.16-.17-.13-.29-.13-.23-.11-.29-.3-.28-.55.01-1.31,0-2.63.01-3.94,0-.3-.05-.44-.4-.44-2.25.02-4.5,0-6.75.01-.44,0-.44.01-.45.45,0,1.25,0,2.5,0,3.75,0,.19-.03.37-.04.56-.01.22-.16.27-.34.28-.17.08-.17.23-.18.39Z"/><path class="i" d="m30.44,50.65c-1.25.03-2.17-.61-2.95-1.52-1.25-1.44-1.07-3.44-.35-4.62.67-1.09,1.67-1.88,3.04-1.99.39-.03.74-.23,1.15-.15,1.47.29,2.55,1.01,3.2,2.42.5,1.08.57,2.15.18,3.22-.48,1.32-1.43,2.24-2.8,2.61-.46.13-.99.02-1.49.02Zm4-4.28c.06-.75-.29-1.51-.84-2.2-.43-.54-1.01-.88-1.65-1.11-.5-.18-1.04-.36-1.55-.33-1.33.06-2.34.84-2.97,1.91-.6,1.01-.65,2.19-.21,3.35.87,2.26,3.47,3.12,5.48,1.8,1.17-.77,1.8-1.83,1.73-3.42Z"/><path class="i" d="m41.76,42.24c-.01-.1-.02-.21-.04-.31-.03-.15-.07-.3.11-.37.17-.06.32-.02.44.14.51.65,1.03,1.3,1.55,1.95.63.79,1.24,1.58,1.89,2.35.39.47.41.69.03,1.17-1.1,1.37-2.19,2.74-3.29,4.12-.08.1-.16.19-.24.29-.11.13-.26.15-.39.09-.13-.06-.11-.2-.1-.33.01-.1,0-.21.01-.31,0-.18-.08-.27-.26-.27-.19,0-.38,0-.56,0-1.21,0-2.42,0-3.63,0-.19,0-.43.1-.53-.18l.34-.03c1.35-.08,2.71-.03,4.06-.03.3,0,.67-.2.9.21.04.08.15,0,.21-.05.12-.11.24-.23.34-.36.83-1.04,1.66-2.08,2.49-3.11q.47-.59-.03-1.21c-.57-.71-1.13-1.43-1.71-2.14-.4-.5-.81-.99-1.21-1.47-.19.11-.16.36-.37.41,0-.18,0-.36,0-.54Z"/><path class="i" d="m24.49,50.7c-.39.09-.79.04-1.18.04-1,0-2,0-3,0-.29,0-.5.05-.44.41,0,.06,0,.12,0,.19-.01.14.03.3-.18.33-.17.02-.25-.07-.35-.19-1.13-1.43-2.28-2.86-3.4-4.3-.16-.2-.51-.32-.44-.61.05-.21.29-.38.44-.57.94-1.17,1.87-2.34,2.81-3.51.13-.16.23-.35.41-.46.27.07.35.26.32.51-.23-.15-.35-.02-.48.15-.95,1.2-1.9,2.39-2.86,3.57-.2.25-.17.41.02.64.98,1.2,1.94,2.42,2.91,3.63.04.05.08.1.12.14.09.09.21.1.24-.02.07-.28.25-.18.44-.18,1.52.03,3.04.05,4.55,0,.02.08.04.16.06.23Z"/><path class="e" d="m24.49,50.7c-.02-.08-.04-.16-.06-.23,0-2.4.01-4.8.02-7.2,0-.46-.01-.47-.5-.47-1.27,0-2.54,0-3.82,0-.26,0-.49-.03-.64-.27.03-.25-.06-.44-.32-.51.02-.04.03-.08.06-.11.14-.13.15-.42.44-.37.33.06.19.32.2.5.01.34.25.27.45.27,1.25,0,2.5,0,3.75,0,.12,0,.25-.01.37,0,.32.05.48.3.48.74,0,2.06,0,4.12,0,6.19,0,.33-.02.67,0,1,.02.33-.12.45-.43.45Z"/><path class="e" d="m41.76,42.24c0,.18,0,.36,0,.54-1.41,0-2.83.02-4.24.03-.51,0-.52,0-.52.5,0,2.25,0,4.49,0,6.74,0,.17-.02.33.07.49l-.34.03c-.1-.18-.05-.37-.05-.55,0-2.29,0-4.58,0-6.87,0-.08,0-.17,0-.25.03-.51.08-.56.59-.57,1.27,0,2.54,0,3.81,0,.23,0,.46.05.67-.08Z"/><path class="e" d="m34.52,34.27c.09-.01.17.02.22.09.25.32.53.59.88.8.18.11.18.27.15.43-.03.16-.18.13-.3.15-.44.05-.45.05-.45.5,0,1.27,0,2.54,0,3.8,0,.46,0,.46-.48.6-.01-.08-.02-.16-.03-.24.08-1.39.02-2.79.03-4.18,0-.42.06-.79.48-1.04-.43-.28-.78-.53-1.05-.88.14-.04.26-.15.41-.14h0c.01.1.06.13.14.11Z"/><path class="i" d="m26.2,35.01c.42-.47.95-.8,1.43-1.19.9-.74,1.81-1.47,2.73-2.19.42-.33.58-.31.98.02.44.37.91.72,1.36,1.08.16.13.31.28.46.42-.18.02-.29.1-.29.29-.14.01-.23-.07-.32-.16-.44-.45-.95-.8-1.43-1.19-.4-.33-.45-.32-.83-.02-.84.67-1.68,1.35-2.51,2.02-.35.29-.71.57-1.06.85-.13.11-.19.22-.02.35-.05,0-.09,0-.14,0,0-.14-.09-.13-.18-.12l-.17-.16Z"/><path class="e" d="m26.2,35.01l.17.16c.03.09.11.1.18.12.05,0,.09,0,.14,0,.32.18.23.5.23.76.01,1.25,0,2.5,0,3.75,0,.21-.04.42.06.62-.1.04-.12.12-.11.22-.34-.05-.27-.31-.27-.53,0-1.02,0-2.04,0-3.06,0-.29,0-.58-.01-.87.2-.14.14-.22-.06-.26-.08-.27-.3-.14-.47-.17-.17-.03-.39.05-.45-.2-.07-.28.2-.26.33-.36.08-.06.17-.11.26-.16Z"/><path class="i" d="m30.14,61.01c-.03.09-.06.19-.09.28-1.26-.95-2.5-1.92-3.69-2.97,0-.15.01-.31.18-.39-.02.26.22.32.36.44,1.07.89,2.19,1.71,3.23,2.63Z"/><path class="m" d="m26.88,40.64c-.01-.1,0-.18.11-.22,2.5,0,5-.01,7.5-.02.01.08.02.16.03.24-.14.07-.28.05-.43.05-2.28,0-4.57,0-6.85,0-.12,0-.25.02-.36-.05Z"/><path class="e" d="m32.87,33.43c0-.19.12-.27.29-.29.21.25.56.32.74.6-.05.14-.1.27-.14.41-.32-.22-.63-.43-.89-.72Z"/><path class="i" d="m33.76,34.15c.05-.14.1-.27.14-.41.19.1.41.17.47.42-.16-.01-.28.09-.41.14-.1,0-.17-.05-.2-.15Z"/><path class="i" d="m26.53,35.9c.2.05.26.13.06.26-.14-.06-.11-.16-.06-.26Z"/><path class="i" d="m34.52,34.27c-.09.02-.13-.02-.14-.1.05.03.1.07.14.1Z"/><path class="e" d="m63.57,55.44c.08-.42.16-.83.37-1.23.43-.82,1.18-1.21,1.93-1.6.33-.17.77-.15,1.17-.15,2.63-.01,5.26,0,7.89,0,.27,0,.54-.02.78.15.04.14.15.11.24.08,1.27.21,2.29,1.8,2.05,3.01-.25,1.25-.78,2.33-2.16,2.78-.42.14-.82.22-1.24.22-2.58,0-5.16,0-7.74,0-.38,0-.75-.06-1.11-.12-.92-.16-2.05-1.31-2.08-2.21,0-.12-.05-.24-.07-.37.07-.18.12-.37,0-.55Zm11.62-2.42c-.21,0-.42-.02-.62-.02-2.57,0-5.13,0-7.7,0-.14,0-.29.03-.43.04-.09-.05-.18-.05-.25.03-.63-.05-.98.37-1.36.77-.24.25-.5.52-.63.84-.42,1.11-.06,2.68,1.29,3.29.48.22.95.24,1.44.24,2.54,0,5.08,0,7.62,0,.21,0,.42,0,.62-.03,1.04-.17,1.74-.75,2.2-1.69.24-.49.17-.97.12-1.46.09-.12.2-.24.11-.42-.1-.18-.24-.06-.36-.06l-.02-.21c.19-.04.23-.13.14-.31-.38-.69-.98-1.05-1.72-1.21-.17-.03-.39-.08-.44.2Z"/><path class="e" d="m101.62,56.45c-.1.88-.64,1.44-1.35,1.86-.57.33-1.21.39-1.85.39-2.71-.01-5.42-.03-8.13-.02-.39,0-.71-.16-1.06-.25,0-.12,0-.24,0-.36.03-.03.07-.07.1-.1.29.09.55.21.87.22,2.14.06,4.29,0,6.43.02.71,0,1.42.02,2.12,0,.62-.02,1.16-.23,1.69-.6.47-.33.62-.8.83-1.25.32-.7-.06-1.94-.59-2.57-.51-.61-1.21-.79-1.95-.79-2.87,0-5.74-.05-8.62.03,0-.2-.28-.25-.25-.46.34-.09.7-.12,1.05-.12,2.5,0,4.99,0,7.49,0,.67,0,1.28.17,1.86.49.62.35,1.01.86,1.26,1.52.23.61.46,1.19.21,1.84-.09,0-.13.05-.1.14Z"/><path class="i" d="m89.85,52.57c-.03.22.26.26.25.46-.08.02-.16.04-.24.06-1.25.34-2.05,1.47-1.97,2.57-.11.01-.23.02-.34.03-.15-1.54.96-2.92,2.3-3.13Z"/><path class="e" d="m87.55,55.7c.11-.01.23-.02.34-.03.14.1.14.26.14.39,0,.51.24.9.55,1.26.21.24.49.44.73.65-.03.03-.07.07-.1.1-.14,0-.27.01-.41.02-.42-.25-.77-.57-.96-1.04,0-.06-.03-.1-.1-.11-.19-.4-.21-.82-.2-1.24Z"/><path class="m" d="m63.57,55.44c.13.18.08.36,0,.55-.1-.18-.09-.36,0-.55Z"/><path class="i" d="m88.81,58.09c.14,0,.27-.01.41-.02,0,.12,0,.24,0,.36-.16-.09-.4-.07-.41-.34Z"/><path class="m" d="m75.95,52.69c-.1.03-.2.07-.24-.08.13-.14.16.06.24.08Z"/><path class="m" d="m101.62,56.45c-.03-.09,0-.14.1-.14-.03.05-.07.1-.1.14Z"/><path class="i" d="m87.75,56.94c.06.01.09.05.1.11-.08,0-.13-.01-.1-.11Z"/><path class="i" d="m144.45,59.32c-.36-.21-.43-.54-.38-.92.27.25.36.57.38.92Z"/><path class="i" d="m119.65,53.45c-.08-.53.25-.93.45-1.36.01-.03.11-.01.17-.02-.14.49-.28.98-.62,1.39Z"/><path class="i" d="m34.94,58.08c.04-.13-.17-.14-.14-.27.12,0,.26-.03.29.13.02.09-.06.13-.15.14Z"/><path class="h" d="m26.56,35.29c-.08-.02-.15-.03-.18-.12.09-.01.19-.02.18.12Z"/><path class="i" d="m77.22,54.34c-.51-.69-1.16-1.18-2.03-1.32.05-.28.28-.23.44-.2.74.16,1.35.52,1.72,1.21.1.18.05.27-.14.31Z"/><path class="i" d="m77.49,55.03c-.05-.18-.24-.28-.25-.47.12,0,.26-.13.36.06.1.18-.01.29-.11.42Z"/><path class="h" d="m66.44,53.04c-.07.13-.15.15-.25.03.08-.08.16-.08.25-.03Z"/><g><path class="j" d="m107.24,73.12h.93c-.3-.02-.25-.15-.26-.83-.01-.69.05-1.38-.05-2.06-.14,0-.29,0-.43,0,0,.83,0,1.67.02,2.5,0,.22-.04.35-.2.39Z"/><path class="j" d="m105.78,68.14c-.25-.02-.5-.02-.75-.02-14.85,0-29.71,0-44.56,0-.65,0-1.29.02-1.94.08-1,.09-1.83,1.01-1.84,2.01-.01.83-.02,1.67,0,2.5,0,.25-.06.38-.27.39h1c-.3-.02-.25-.13-.25-.76,0-.63,0-1.25,0-1.88.01-1.14.68-1.82,1.83-1.85.63-.02,1.25-.02,1.88-.02,14.75,0,29.5,0,44.25,0,.33,0,.67.03,1,.04,0-.11.02-.22.02-.33-.06-.19-.23-.17-.36-.18Z"/></g><g><path class="j" d="m57.42,13.88h-.99c.3.01.24.11.25.7.02,1.4-.04,2.79.03,4.19.14,0,.27.02.34.15.04-.02.07-.03.12-.03,0-1.54,0-3.09-.02-4.63,0-.25.07-.37.27-.39Z"/><path class="j" d="m108.23,13.88h-1.56q.76,0,.76.75c0,1.31,0,2.63,0,3.94-.01.76-.37,1.33-1.07,1.66-.23.11-.48.13-.73.14-.33,0-.67,0-1,0-15.04,0-30.09,0-45.13,0-.35,0-.71-.01-1.06-.02-.1.07-.12,0-.12-.07-.04,0-.09,0-.13,0v.47c.42.02.84.06,1.25.06,15.29,0,30.59,0,45.88,0,.56,0,1.11-.06,1.58-.38.69-.48,1.01-1.17,1.02-1.99.02-1.27,0-2.55,0-3.82,0-.15,0-.29,0-.44-.02-.25.11-.32.32-.31Z"/></g><path class="k" d="m174.61,73.23c-.1-.06-.12-.16-.12-.27,0-.19,0-.38,0-.56,0-19.31,0-38.62,0-57.94,0-.23-.1-.5.11-.7.04-.09.08-.17.13-.26-.42-.17-.86-.08-1.29-.08-55.84,0-111.67,0-167.51,0-.2,0-.42-.06-.61.06.05.13.24.14.23.31,0,17.3,0,34.59,0,51.89,0,2.5,0,5.01,0,7.51-.03.13-.06.26-.09.39.21,0,.42.02.62.02,55.99,0,111.97,0,167.96,0,.17,0,.33,0,.5,0,.18,0,.19-.12.21-.25-.07-.01-.12-.05-.14-.12Zm-.46-1.1q0,.99-1,.99c-20.39,0-40.79,0-61.18,0h0s-3.26,0-3.26,0c-.26,0-.43,0-.55,0h-.92c-.05.01-.12.01-.19,0-.12-.02-.25,0-.38,0-16.25,0-32.51,0-48.76,0-.25,0-.41,0-.52,0h-.98s-.07.01-.12,0c-.21-.02-.42,0-.63,0H5.94c-.13-.21-.08-.4-.08-.58,0-19.32,0-38.64,0-57.96,0-.1.01-.21,0-.31-.05-.35.12-.44.43-.41.12.01.25,0,.38,0,14.33,0,28.67,0,43,0h0s6.52,0,6.52,0c.06,0,.11,0,.16,0h1.07s.07,0,.12,0c.12.01.25,0,.38,0h50.32s.01,0,.02,0c.07,0,.14,0,.21,0h7.95c19.02,0,38.05,0,57.07,0,.04,0,.08,0,.13,0q.54,0,.55.55c0,.17,0,.33,0,.5v57.21Z"/><rect class="n" x="44.3" y=".59" width="7.51" height="2.73"/></svg>